# Blender v2.78 (sub 0) OBJ File: 'reconplane.blend'
# www.blender.org
mtllib reconplane.mtl
o Cylinder
v -0.185382 -0.039054 -0.777378
v -0.143424 -0.212132 0.022621
v -0.302539 0.100000 -0.777378
v -0.402539 0.100000 0.022621
v -0.185558 0.182843 -0.777379
v -0.055558 0.282843 -0.177379
v -0.109305 -0.221002 0.222621
v -0.322539 0.000000 0.222621
v -0.161633 0.198156 0.222621
v -0.091684 -0.094222 0.722621
v -0.129760 -0.002298 0.722621
v -0.091684 0.089626 0.722621
v -0.076078 -0.073539 0.622621
v -0.106539 0.000000 0.622621
v -0.076078 0.073539 0.622621
v -0.284965 0.042574 -0.777378
v -0.384965 0.042574 0.022621
v -0.299693 -0.055154 0.222621
v -0.124048 -0.016087 0.722621
v -1.393752 0.071287 -0.477378
v -1.393752 0.071287 -0.277379
v -0.502539 0.100000 0.022621
v -0.484965 0.042574 0.022621
v -0.502539 0.100000 -0.377378
v -0.484965 0.042574 -0.377378
v -0.132393 0.019543 -1.076218
v -0.179286 0.057980 -1.076218
v -0.187561 0.085022 -1.076218
v -0.132393 0.124031 -1.076218
v -0.015035 0.048759 -1.135022
v -0.132393 0.019543 -1.176218
v -0.179286 0.057980 -1.176218
v -0.187561 0.085021 -1.176218
v -0.132393 0.124031 -1.176218
v -0.015035 0.094774 -1.135022
v -0.053764 0.062535 -1.108368
v -0.111580 0.059176 -1.076218
v -0.122834 0.068401 -1.076218
v -0.124820 0.074891 -1.076218
v -0.111580 0.084253 -1.076218
v -0.053764 0.080941 -1.108368
v 0.000000 -0.156212 -0.777378
v 0.000000 -0.270711 0.022622
v 0.185382 -0.039054 -0.777378
v 0.143424 -0.212132 0.022621
v 0.302539 0.100000 -0.777378
v 0.402539 0.100000 0.022621
v 0.185558 0.182843 -0.777379
v 0.055558 0.282843 -0.177379
v 0.000000 0.500000 -1.077379
v 0.000000 0.300000 0.022621
v 0.000000 -0.266694 0.222622
v 0.109305 -0.221002 0.222621
v 0.322539 0.000000 0.222621
v 0.161633 0.198156 0.222621
v 0.000000 0.289539 0.222621
v 0.000000 -0.132298 0.722622
v 0.091684 -0.094222 0.722621
v 0.129760 -0.002298 0.722621
v 0.091684 0.089626 0.722621
v 0.000000 0.127702 0.722621
v 0.000000 -0.104000 0.622621
v 0.076078 -0.073539 0.622621
v 0.106539 0.000000 0.622621
v 0.076078 0.073539 0.622621
v 0.000000 0.104000 0.622621
v 0.284965 0.042574 -0.777378
v 0.384965 0.042574 0.022621
v 0.299693 -0.055154 0.222621
v 0.124048 -0.016087 0.722621
v 1.393752 0.071287 -0.477378
v 1.393752 0.071287 -0.277379
v 0.502539 0.100000 0.022621
v 0.484965 0.042574 0.022621
v 0.502539 0.100000 -0.377378
v 0.484965 0.042574 -0.377378
v 0.000000 0.007333 -1.094311
v 0.132393 0.019543 -1.076218
v 0.179286 0.057980 -1.076218
v 0.187561 0.085022 -1.076218
v 0.132393 0.124031 -1.076218
v 0.000000 0.136228 -1.094311
v 0.015035 0.048759 -1.135022
v 0.132393 0.019543 -1.176218
v 0.179286 0.057980 -1.176218
v 0.187561 0.085021 -1.176218
v 0.132393 0.124031 -1.176218
v 0.015035 0.094774 -1.135022
v 0.053764 0.062535 -1.108368
v 0.111580 0.059176 -1.076218
v 0.122834 0.068401 -1.076218
v 0.124820 0.074891 -1.076218
v 0.111580 0.084253 -1.076218
v 0.053764 0.080941 -1.108368
v 0.000000 -0.001838 0.822621
vt 0.9813 0.0614
vt 0.6039 0.1335
vt 0.9889 0.1691
vt 0.0929 0.3623
vt 0.0644 0.3686
vt 0.0490 0.8249
vt 0.1652 0.2134
vt 0.2927 0.5233
vt 0.2362 0.2193
vt 0.5050 0.8482
vt 0.8571 0.7683
vt 0.3786 0.6839
vt 0.0905 0.6071
vt 0.2115 0.7184
vt 0.6028 0.0614
vt 0.5122 0.1167
vt 0.3137 0.6246
vt 0.3046 0.7239
vt 0.5053 0.2510
vt 0.6061 0.3154
vt 0.1539 0.9830
vt 0.2030 0.9775
vt 0.2719 0.0614
vt 0.2675 0.1106
vt 0.2522 0.9814
vt 0.2568 0.1539
vt 0.0423 0.1568
vt 0.0998 0.1476
vt 0.0787 0.1854
vt 0.0579 0.1009
vt 0.0752 0.1271
vt 0.0059 0.0738
vt 0.0517 0.0349
vt 0.0498 0.0700
vt 0.1457 0.0653
vt 0.8671 0.9757
vt 0.9301 0.8121
vt 0.9734 0.9739
vt 0.2568 0.1539
vt 0.5012 0.2664
vt 0.5053 0.2510
vt 0.6061 0.3154
vt 0.9941 0.2317
vt 0.3982 0.4906
vt 0.8264 0.3819
vt 0.3713 0.2955
vt 0.8986 0.5476
vt 0.4112 0.6485
vt 0.4010 0.5402
vt 0.7760 0.5202
vt 0.9546 0.3130
vt 0.8668 0.5399
vt 0.9733 0.7591
vt 0.9864 0.3207
vt 0.3226 0.3022
vt 0.0683 0.3202
vt 0.0967 0.3140
vt 0.0066 0.3772
vt 0.0406 0.3824
vt 0.0406 0.3824
vt 0.3443 0.8401
vt 0.3768 0.8885
vt 0.8066 0.9768
vt 0.8313 0.8300
vt 0.8313 0.8300
vt 0.8663 0.8306
vt 0.7225 0.9354
vt 0.7788 0.9723
vt 0.0057 0.2802
vt 0.0349 0.2676
vt 0.0056 0.2543
vt 0.0061 0.4202
vt 0.0322 0.4661
vt 0.0402 0.4206
vt 0.0066 0.3772
vt 0.0406 0.3824
vt 0.0420 0.4907
vt 0.0056 0.4660
vt 0.0063 0.3972
vt 0.0272 0.3259
vt 0.0073 0.3211
vt 0.0349 0.2676
vt 0.0460 0.2665
vt 0.0460 0.2665
vt 0.0621 0.2379
vt 0.0460 0.2665
vt 0.0807 0.2698
vt 0.0616 0.2973
vt 0.0349 0.2676
vt 0.0807 0.2698
vt 0.0154 0.1112
vt 0.6039 0.1335
vt 0.0929 0.3623
vt 0.0490 0.8249
vt 0.0644 0.3686
vt 0.1652 0.2134
vt 0.2927 0.5233
vt 0.0905 0.6071
vt 0.5050 0.8482
vt 0.7702 0.7959
vt 0.2115 0.7184
vt 0.5122 0.1167
vt 0.5053 0.2510
vt 0.6061 0.3154
vt 0.1539 0.9830
vt 0.0836 0.7248
vt 0.5144 0.0614
vt 0.2568 0.1539
vt 0.1221 0.2013
vt 0.1615 0.1588
vt 0.1686 0.2019
vt 0.2119 0.1888
vt 0.2209 0.1293
vt 0.2491 0.1656
vt 0.1301 0.1577
vt 0.8671 0.9757
vt 0.2568 0.1539
vt 0.5012 0.2664
vt 0.6054 0.3328
vt 0.9889 0.1691
vt 0.8264 0.3819
vt 0.3982 0.4906
vt 0.3713 0.2955
vt 0.8986 0.5476
vt 0.4112 0.6485
vt 0.9191 0.7643
vt 0.7760 0.5202
vt 0.4010 0.5402
vt 0.9546 0.3130
vt 0.9864 0.3207
vt 0.9733 0.7591
vt 0.3226 0.3022
vt 0.3276 0.6992
vt 0.0683 0.3202
vt 0.0967 0.3140
vt 0.0066 0.3772
vt 0.0406 0.3824
vt 0.0066 0.3772
vt 0.8066 0.9768
vt 0.8313 0.8300
vt 0.7788 0.9723
vt 0.8313 0.8300
vt 0.7225 0.9354
vt 0.0349 0.2676
vt 0.0057 0.2802
vt 0.0056 0.2543
vt 0.0061 0.4202
vt 0.0322 0.4661
vt 0.0406 0.3824
vt 0.0063 0.3972
vt 0.0272 0.3259
vt 0.0460 0.2665
vt 0.0349 0.2676
vt 0.0349 0.2676
vt 0.0460 0.2665
vt 0.0621 0.2379
vt 0.0807 0.2698
vt 0.0616 0.2973
vt 0.0460 0.2665
vt 0.0807 0.2698
vt 0.1921 0.1493
vt 0.1750 0.2003
vt 0.7702 0.7959
vt 0.0836 0.7248
vt 0.0175 0.1176
vt 0.0060 0.0299
vt 0.8399 0.4794
vt 0.9191 0.7643
vt 0.3276 0.6992
vt 0.7982 0.8116
vt 0.0322 0.4661
vt 0.2362 0.2193
vt 0.2030 0.9775
vt 0.2675 0.1106
vt 0.8663 0.8306
vt 0.9941 0.2317
vt 0.8399 0.4794
vt 0.8668 0.5399
vt 0.0406 0.3824
vt 0.3768 0.8885
vt 0.7982 0.8116
vt 0.0402 0.4206
vt 0.0322 0.4661
vn -0.5279 -0.8354 -0.1530
vn -0.3148 -0.0963 0.9443
vn -0.5779 0.8160 -0.0108
vn -0.8122 0.5739 0.1043
vn -0.4300 0.8996 0.0764
vn -0.3780 -0.9255 0.0234
vn -0.4916 0.8696 0.0455
vn -0.7253 -0.6879 -0.0269
vn -0.9037 0.3743 0.2077
vn -0.3723 -0.8964 0.2404
vn -0.4737 0.8379 0.2712
vn -0.6309 -0.7243 0.2782
vn 0.3747 -0.9022 0.2138
vn 0.9049 -0.3748 0.2015
vn 0.3606 0.9006 0.2426
vn -0.3336 0.8332 0.4409
vn -0.4897 -0.7748 -0.3998
vn -0.8708 -0.3607 0.3341
vn -0.9306 -0.2848 0.2299
vn -0.6320 -0.7710 -0.0790
vn -0.0322 0.9995 -0.0000
vn -0.0316 -0.9995 0.0000
vn 0.1104 0.0338 -0.9933
vn -0.8627 -0.2640 -0.4313
vn 0.0000 -1.0000 0.0000
vn 0.0000 1.0000 -0.0000
vn 0.0000 0.0000 1.0000
vn -0.6339 -0.7734 0.0000
vn -0.1183 0.9701 -0.2120
vn -0.9016 -0.2759 -0.3331
vn -0.6129 -0.7478 -0.2553
vn -0.5589 0.7892 -0.2546
vn -0.5669 0.0000 -0.8238
vn 0.2419 0.9703 -0.0000
vn -0.9562 -0.2926 0.0000
vn 0.9381 0.0000 -0.3464
vn -0.5774 0.8165 -0.0000
vn -0.1587 -0.7207 -0.6748
vn 0.0000 0.0000 -1.0000
vn 0.5275 -0.7460 -0.4065
vn -0.0386 0.8637 -0.5025
vn 0.5806 0.7083 -0.4016
vn -0.2296 -0.9198 -0.3181
vn 0.8306 0.2542 -0.4954
vn -0.8278 0.3429 0.4441
vn -0.3359 -0.8388 0.4285
vn -0.8301 -0.3438 0.4390
vn 0.9017 0.3735 0.2180
vn 0.3748 -0.9177 -0.1314
vn 0.3148 -0.0963 0.9443
vn 0.4929 0.8679 -0.0616
vn -0.7696 0.5816 -0.2637
vn 0.4300 0.8996 0.0764
vn 0.3780 -0.9255 0.0234
vn 0.4797 0.8755 0.0581
vn 0.7253 -0.6879 -0.0269
vn 0.7431 0.6034 0.2893
vn 0.3743 -0.8955 0.2407
vn 0.4737 0.8379 0.2712
vn 0.6309 -0.7243 0.2782
vn -0.3747 -0.9022 0.2138
vn -0.9049 -0.3748 0.2015
vn -0.3711 0.8935 0.2528
vn 0.3336 0.8332 0.4409
vn 0.4897 -0.7748 -0.3998
vn 0.8708 -0.3607 0.3341
vn 0.9306 -0.2848 0.2299
vn 0.7212 -0.6839 -0.1101
vn 0.0322 0.9995 -0.0000
vn 0.0316 -0.9995 0.0000
vn -0.1104 0.0338 -0.9933
vn 0.8627 -0.2640 -0.4313
vn 0.6339 -0.7734 0.0000
vn 0.8612 0.0236 -0.5077
vn 0.9016 -0.2759 -0.3331
vn 0.6129 -0.7478 -0.2553
vn 0.5589 0.7892 -0.2546
vn 0.5669 0.0000 -0.8238
vn 0.1586 0.7205 -0.6751
vn 0.9562 -0.2926 0.0000
vn -0.9381 0.0000 -0.3464
vn 0.5774 0.8165 -0.0000
vn 0.1587 -0.7207 -0.6748
vn 0.4860 0.0000 -0.8740
vn -0.5275 -0.7460 -0.4065
vn 0.0386 0.8637 -0.5025
vn -0.5806 0.7083 -0.4016
vn 0.0384 -0.8630 -0.5037
vn -0.8306 0.2542 -0.4954
vn 0.8278 0.3429 0.4441
vn 0.3359 -0.8388 0.4285
vn 0.8301 -0.3438 0.4390
vn -0.9017 0.3735 0.2180
vn -0.3748 -0.9177 -0.1314
vn -0.4929 0.8679 -0.0616
vn 0.7696 0.5816 -0.2637
vn -0.6581 0.5344 0.5304
vn -0.3856 -0.9225 0.0185
vn -0.4797 0.8755 0.0581
vn -0.6548 -0.7517 0.0784
vn -0.7431 0.6034 0.2893
vn -0.3743 -0.8955 0.2407
vn -0.3717 0.8951 0.2463
vn -0.9162 -0.3795 0.1285
vn 0.3640 -0.9090 0.2030
vn 0.3711 0.8935 0.2528
vn -0.1183 -0.9702 -0.2112
vn -0.9047 -0.3747 0.2026
vn -0.7212 -0.6839 -0.1101
vn -0.8612 0.0236 -0.5077
vn -0.5583 0.7896 -0.2547
vn -0.1586 0.7205 -0.6751
vn -0.5773 0.8165 -0.0000
vn 0.2416 -0.9704 0.0000
vn -0.4860 0.0000 -0.8740
vn -0.2297 0.9202 -0.3169
vn -0.0384 -0.8630 -0.5037
vn 0.5279 -0.8354 -0.1530
vn 0.5779 0.8160 -0.0108
vn 0.8122 0.5739 0.1043
vn 0.6581 0.5344 0.5304
vn 0.3856 -0.9225 0.0185
vn 0.4916 0.8696 0.0455
vn 0.6548 -0.7517 0.0784
vn 0.9037 0.3743 0.2077
vn 0.3723 -0.8964 0.2404
vn 0.3717 0.8951 0.2463
vn 0.9162 -0.3795 0.1285
vn -0.3640 -0.9090 0.2030
vn -0.3606 0.9006 0.2426
vn 0.1183 -0.9702 -0.2112
vn 0.9047 -0.3747 0.2026
vn 0.6320 -0.7710 -0.0790
vn 0.1183 0.9701 -0.2120
vn 0.5583 0.7896 -0.2547
vn -0.2419 0.9703 -0.0000
vn 0.5773 0.8165 -0.0000
vn -0.2416 -0.9704 0.0000
vn 0.2297 0.9202 -0.3169
vn 0.2296 -0.9198 -0.3181
usemtl None
s off
f 42/1/1 2/2/1 1/3/1
f 23/4/2 22/5/2 21/6/2
f 3/7/3 6/8/3 5/9/3
f 5/10/4 51/11/4 50/12/4
f 4/13/5 9/14/5 6/8/5
f 43/15/6 7/16/6 2/2/6
f 51/17/7 9/14/7 56/18/7
f 2/2/8 18/19/8 17/20/8
f 9/14/9 11/21/9 12/22/9
f 7/16/10 57/23/10 10/24/10
f 9/14/11 61/25/11 56/18/11
f 7/16/12 19/26/12 18/19/12
f 12/27/13 66/28/13 61/29/13
f 12/27/14 14/30/14 15/31/14
f 10/32/15 62/33/15 13/34/15
f 66/28/16 15/31/16 95/35/16
f 1/36/17 77/37/17 42/38/17
f 18/19/18 11/39/18 8/40/18
f 17/20/19 8/41/19 4/42/19
f 1/3/20 17/20/20 16/43/20
f 24/44/21 21/45/21 22/46/21
f 25/47/22 21/48/22 20/49/22
f 24/50/23 25/47/23 20/49/23
f 3/51/24 25/47/24 24/52/24
f 17/53/25 25/47/25 16/54/25
f 4/55/26 24/44/26 22/46/26
f 4/56/27 23/4/27 17/57/27
f 26/58/28 32/59/28 31/60/28
f 5/10/29 82/61/29 29/62/29
f 16/63/30 28/64/30 27/65/30
f 1/36/31 27/65/31 26/66/31
f 5/67/32 28/64/32 3/68/32
f 30/69/33 41/70/33 35/71/33
f 29/72/34 35/73/34 34/74/34
f 27/75/35 33/76/35 32/59/35
f 77/77/36 35/73/36 82/78/36
f 29/72/37 33/76/37 28/79/37
f 26/58/38 30/80/38 77/81/38
f 37/82/39 38/83/39 40/84/39
f 34/85/40 39/86/40 33/87/40
f 31/88/41 36/89/41 30/69/41
f 31/88/42 38/83/42 37/82/42
f 34/85/43 41/70/43 40/84/43
f 32/90/44 39/86/44 38/83/44
f 15/31/45 14/30/45 95/35/45
f 13/34/46 62/33/46 95/35/46
f 14/30/47 13/34/47 95/35/47
f 13/34/48 14/30/48 19/91/48
f 42/1/49 45/92/49 43/15/49
f 74/93/50 72/94/50 73/95/50
f 46/96/51 49/97/51 47/98/51
f 48/99/52 51/11/52 49/100/52
f 55/101/53 47/98/53 49/97/53
f 53/102/54 43/15/54 45/92/54
f 51/17/55 55/101/55 49/97/55
f 69/103/56 45/92/56 68/104/56
f 55/101/57 59/105/57 54/106/57
f 53/102/58 57/23/58 52/107/58
f 61/25/59 55/101/59 56/18/59
f 70/108/60 53/102/60 69/103/60
f 66/28/61 60/109/61 61/29/61
f 60/109/62 64/110/62 59/111/62
f 58/112/63 62/113/63 57/114/63
f 66/28/64 95/35/64 65/115/64
f 77/37/65 44/116/65 42/38/65
f 59/117/66 69/103/66 54/118/66
f 54/118/67 68/104/67 47/119/67
f 44/120/68 68/104/68 45/92/68
f 72/121/69 75/122/69 73/123/69
f 76/124/70 72/125/70 74/126/70
f 75/127/71 71/128/71 76/124/71
f 46/129/72 76/124/72 67/130/72
f 76/124/25 68/131/25 67/130/25
f 47/132/26 75/122/26 46/133/26
f 74/93/27 47/134/27 68/135/27
f 78/136/73 85/137/73 79/138/73
f 48/99/74 82/61/74 50/12/74
f 67/139/75 80/140/75 46/141/75
f 44/116/76 79/142/76 67/139/76
f 80/140/77 48/143/77 46/141/77
f 94/144/78 83/145/78 88/146/78
f 81/147/79 88/148/79 82/78/79
f 79/138/80 86/149/80 80/150/80
f 88/148/81 77/77/81 82/78/81
f 86/149/82 81/147/82 80/150/82
f 83/151/83 78/136/83 77/81/83
f 93/152/84 90/153/84 89/154/84
f 92/155/85 87/156/85 86/157/85
f 89/154/86 84/158/86 83/145/86
f 84/158/87 91/159/87 85/160/87
f 87/156/88 94/144/88 88/146/88
f 85/160/89 92/155/89 86/157/89
f 65/115/90 95/35/90 64/110/90
f 63/161/91 95/35/91 62/113/91
f 64/110/92 95/35/92 63/161/92
f 64/110/93 63/161/93 70/162/93
f 42/1/94 43/15/94 2/2/94
f 3/7/95 4/13/95 6/8/95
f 5/10/96 6/163/96 51/11/96
f 4/13/97 8/164/97 9/14/97
f 43/15/98 52/107/98 7/16/98
f 51/17/99 6/8/99 9/14/99
f 2/2/100 7/16/100 18/19/100
f 9/14/101 8/164/101 11/21/101
f 7/16/102 52/107/102 57/23/102
f 9/14/103 12/22/103 61/25/103
f 7/16/104 10/24/104 19/26/104
f 12/27/105 15/31/105 66/28/105
f 12/27/14 11/165/14 14/30/14
f 10/32/106 57/166/106 62/33/106
f 1/36/107 26/66/107 77/37/107
f 18/19/18 19/26/18 11/39/18
f 17/20/108 18/19/108 8/41/108
f 1/3/109 2/2/109 17/20/109
f 24/44/21 20/167/21 21/45/21
f 25/47/22 23/168/22 21/48/22
f 3/51/24 16/54/24 25/47/24
f 17/53/25 23/168/25 25/47/25
f 4/55/26 3/169/26 24/44/26
f 4/56/27 22/5/27 23/4/27
f 26/58/28 27/75/28 32/59/28
f 5/10/110 50/12/110 82/61/110
f 16/63/30 3/68/30 28/64/30
f 1/36/31 16/63/31 27/65/31
f 5/67/111 29/170/111 28/64/111
f 30/69/33 36/89/33 41/70/33
f 29/72/112 82/78/112 35/73/112
f 27/75/35 28/79/35 33/76/35
f 77/77/36 30/171/36 35/73/36
f 29/72/113 34/74/113 33/76/113
f 26/58/114 31/60/114 30/80/114
f 40/84/115 41/70/115 36/89/115
f 36/89/115 37/82/115 40/84/115
f 38/83/39 39/86/39 40/84/39
f 34/85/40 40/84/40 39/86/40
f 31/88/116 37/82/116 36/89/116
f 31/88/42 32/90/42 38/83/42
f 34/85/117 35/71/117 41/70/117
f 32/90/44 33/87/44 39/86/44
f 11/165/48 19/91/48 14/30/48
f 10/32/48 13/34/48 19/91/48
f 42/1/118 44/120/118 45/92/118
f 46/96/119 48/172/119 49/97/119
f 48/99/120 50/12/120 51/11/120
f 55/101/121 54/106/121 47/98/121
f 53/102/122 52/107/122 43/15/122
f 51/17/123 56/18/123 55/101/123
f 69/103/124 53/102/124 45/92/124
f 55/101/125 60/173/125 59/105/125
f 53/102/126 58/174/126 57/23/126
f 61/25/127 60/173/127 55/101/127
f 70/108/128 58/174/128 53/102/128
f 66/28/129 65/115/129 60/109/129
f 60/109/62 65/115/62 64/110/62
f 58/112/130 63/161/130 62/113/130
f 77/37/131 78/175/131 44/116/131
f 59/117/66 70/108/66 69/103/66
f 54/118/132 69/103/132 68/104/132
f 44/120/133 67/176/133 68/104/133
f 72/121/69 71/177/69 75/122/69
f 76/124/70 71/128/70 72/125/70
f 46/129/72 75/178/72 76/124/72
f 76/124/25 74/126/25 68/131/25
f 47/132/26 73/123/26 75/122/26
f 74/93/27 73/95/27 47/134/27
f 78/136/73 84/179/73 85/137/73
f 48/99/134 81/180/134 82/61/134
f 67/139/75 79/142/75 80/140/75
f 44/116/76 78/175/76 79/142/76
f 80/140/135 81/181/135 48/143/135
f 94/144/78 89/154/78 83/145/78
f 81/147/136 87/182/136 88/148/136
f 79/138/80 85/137/80 86/149/80
f 88/148/81 83/183/81 77/77/81
f 86/149/137 87/182/137 81/147/137
f 83/151/138 84/179/138 78/136/138
f 89/154/84 94/144/84 93/152/84
f 93/152/39 92/155/39 91/159/39
f 91/159/39 90/153/39 93/152/39
f 92/155/85 93/152/85 87/156/85
f 89/154/139 90/153/139 84/158/139
f 84/158/87 90/153/87 91/159/87
f 87/156/140 93/152/140 94/144/140
f 85/160/89 91/159/89 92/155/89
f 58/112/93 70/162/93 63/161/93
f 59/111/93 64/110/93 70/162/93
