# Blender v2.78 (sub 0) OBJ File: ''
# www.blender.org
mtllib shadow.mtl
o Model
v 0.129690 0.000000 -0.856548
v 0.143280 0.000000 -1.226409
v 0.112138 0.000000 -1.042373
v 0.194738 0.000000 -0.681597
v 0.220992 0.000000 -1.396115
v 0.302851 0.000000 -0.529443
v 0.339979 0.000000 -1.539924
v 0.446661 0.000000 -0.410456
v 0.492133 0.000000 -1.648037
v 0.616366 0.000000 -0.332743
v 0.667084 0.000000 -1.713086
v 0.800402 0.000000 -0.301602
v 0.852909 0.000000 -1.730637
v 0.986228 0.000000 -0.319153
v 1.036946 0.000000 -1.699496
v 1.161179 0.000000 -0.384202
v 1.206651 0.000000 -1.621783
v 1.313332 0.000000 -0.492315
v 1.350460 0.000000 -1.502796
v 1.432320 0.000000 -0.636124
v 1.458573 0.000000 -1.350642
v 1.510032 0.000000 -0.805830
v 1.523622 0.000000 -1.175691
v 1.541174 0.000000 -0.989866
vt 5.1059 33.7223
vt 5.6409 48.2838
vt 4.4149 41.0383
vt 7.6669 26.8345
vt 8.7005 54.9651
vt 11.9233 20.8442
vt 13.3850 60.6269
vt 17.5851 16.1597
vt 19.3753 64.8833
vt 24.2664 13.1001
vt 26.2631 67.4443
vt 31.5119 11.8741
vt 33.5791 68.1353
vt 38.8279 12.5651
vt 40.8246 66.9093
vt 45.7157 15.1261
vt 47.5059 63.8497
vt 51.7060 19.3825
vt 53.1677 59.1652
vt 56.3905 25.0443
vt 57.4241 53.1749
vt 59.4501 31.7256
vt 59.9851 46.2871
vt 60.6761 38.9711
vn 0.0000 1.0000 0.0000
usemtl FrontCol
s off
f 1/1/1 2/2/1 3/3/1
f 2/2/1 1/1/1 4/4/1
f 2/2/1 4/4/1 5/5/1
f 5/5/1 4/4/1 6/6/1
f 5/5/1 6/6/1 7/7/1
f 7/7/1 6/6/1 8/8/1
f 7/7/1 8/8/1 9/9/1
f 9/9/1 8/8/1 10/10/1
f 9/9/1 10/10/1 11/11/1
f 11/11/1 10/10/1 12/12/1
f 11/11/1 12/12/1 13/13/1
f 13/13/1 12/12/1 14/14/1
f 13/13/1 14/14/1 15/15/1
f 15/15/1 14/14/1 16/16/1
f 15/15/1 16/16/1 17/17/1
f 17/17/1 16/16/1 18/18/1
f 17/17/1 18/18/1 19/19/1
f 19/19/1 18/18/1 20/20/1
f 19/19/1 20/20/1 21/21/1
f 21/21/1 20/20/1 22/22/1
f 21/21/1 22/22/1 23/23/1
f 23/23/1 22/22/1 24/24/1
